<svg xmlns="http://www.w3.org/2000/svg" viewBox="0 0 640 400"><defs><radialGradient id="bg"><stop stop-color="#20130c"/><stop offset="1" stop-color="#050505"/></radialGradient><linearGradient id="gold" x2="1" y2="1"><stop stop-color="#fff0b5"/><stop offset=".5" stop-color="#d4af37"/><stop offset="1" stop-color="#825b17"/></linearGradient></defs><rect width="640" height="400" fill="url(#bg)"/><g transform="translate(150 82) rotate(-8)"><rect width="120" height="210" rx="10" fill="#f2e9d7" stroke="#d4af37" stroke-width="4"/><circle cx="62" cy="112" r="34" fill="#b3151a"/><path d="M62 46v132M22 112h80M34 76l56 72M90 76l-56 72" stroke="#c61c24" stroke-width="9"/><circle cx="62" cy="112" r="11" fill="#f8e7a6"/></g><g transform="translate(270 68) rotate(6)"><rect width="120" height="210" rx="10" fill="#111" stroke="#d4af37" stroke-width="4"/><path d="M20 170C48 115 76 72 102 35" stroke="#e7e0cb" stroke-width="8"/><circle cx="87" cy="67" r="27" fill="#e8e0cd"/><path d="M58 168c15-33 34-62 55-89" stroke="#b51a21" stroke-width="12"/></g><g transform="translate(390 90) rotate(12)"><rect width="120" height="210" rx="10" fill="#b5151c" stroke="#d4af37" stroke-width="4"/><path d="M60 35c36 36 36 118 0 150C24 153 24 71 60 35Z" fill="#f4e9cc"/><circle cx="60" cy="112" r="16" fill="#d4af37"/></g><g transform="translate(510 305)"><circle r="40" fill="#090909" stroke="url(#gold)" stroke-width="7"/><text text-anchor="middle" y="8" font-family="Georgia" font-size="22" fill="#f5dfa0">V</text></g></svg>